<mxfile host="app.diagrams.net" agent="Mozilla/5.0 (Windows NT 10.0; Win64; x64) AppleWebKit/537.36 (KHTML, like Gecko) Chrome/135.0.0.0 Safari/537.36" version="27.0.1">
  <diagram name="Page-1" id="2YBvvXClWsGukQMizWep">
    <mxGraphModel dx="1603" dy="811" grid="1" gridSize="10" guides="1" tooltips="1" connect="1" arrows="1" fold="1" page="1" pageScale="1" pageWidth="850" pageHeight="1100" math="0" shadow="0">
      <root>
        <mxCell id="0" />
        <mxCell id="1" parent="0" />
        <mxCell id="aM9ryv3xv72pqoxQDRHE-1" value="User" style="shape=umlLifeline;perimeter=lifelinePerimeter;whiteSpace=wrap;html=1;container=0;dropTarget=0;collapsible=0;recursiveResize=0;outlineConnect=0;portConstraint=eastwest;newEdgeStyle={&quot;edgeStyle&quot;:&quot;elbowEdgeStyle&quot;,&quot;elbow&quot;:&quot;vertical&quot;,&quot;curved&quot;:0,&quot;rounded&quot;:0};" parent="1" vertex="1">
          <mxGeometry x="40" y="30" width="100" height="1090" as="geometry" />
        </mxCell>
        <mxCell id="aM9ryv3xv72pqoxQDRHE-2" value="" style="html=1;points=[];perimeter=orthogonalPerimeter;outlineConnect=0;targetShapes=umlLifeline;portConstraint=eastwest;newEdgeStyle={&quot;edgeStyle&quot;:&quot;elbowEdgeStyle&quot;,&quot;elbow&quot;:&quot;vertical&quot;,&quot;curved&quot;:0,&quot;rounded&quot;:0};" parent="aM9ryv3xv72pqoxQDRHE-1" vertex="1">
          <mxGeometry x="45" y="70" width="10" height="690" as="geometry" />
        </mxCell>
        <mxCell id="aM9ryv3xv72pqoxQDRHE-5" value="EventManagemen&lt;span style=&quot;background-color: transparent; color: light-dark(rgb(0, 0, 0), rgb(255, 255, 255));&quot;&gt;t&lt;/span&gt;&lt;div&gt;&lt;span style=&quot;background-color: transparent; color: light-dark(rgb(0, 0, 0), rgb(255, 255, 255));&quot;&gt;Dialog&lt;/span&gt;&lt;/div&gt;" style="shape=umlLifeline;perimeter=lifelinePerimeter;whiteSpace=wrap;html=1;container=0;dropTarget=0;collapsible=0;recursiveResize=0;outlineConnect=0;portConstraint=eastwest;newEdgeStyle={&quot;edgeStyle&quot;:&quot;elbowEdgeStyle&quot;,&quot;elbow&quot;:&quot;vertical&quot;,&quot;curved&quot;:0,&quot;rounded&quot;:0};" parent="1" vertex="1">
          <mxGeometry x="350" y="30" width="110" height="1120" as="geometry" />
        </mxCell>
        <mxCell id="aM9ryv3xv72pqoxQDRHE-6" value="" style="html=1;points=[];perimeter=orthogonalPerimeter;outlineConnect=0;targetShapes=umlLifeline;portConstraint=eastwest;newEdgeStyle={&quot;edgeStyle&quot;:&quot;elbowEdgeStyle&quot;,&quot;elbow&quot;:&quot;vertical&quot;,&quot;curved&quot;:0,&quot;rounded&quot;:0};" parent="aM9ryv3xv72pqoxQDRHE-5" vertex="1">
          <mxGeometry x="45" y="80" width="10" height="260" as="geometry" />
        </mxCell>
        <mxCell id="WA52P8AH93HrRqGYN0VY-19" value="" style="html=1;points=[];perimeter=orthogonalPerimeter;outlineConnect=0;targetShapes=umlLifeline;portConstraint=eastwest;newEdgeStyle={&quot;edgeStyle&quot;:&quot;elbowEdgeStyle&quot;,&quot;elbow&quot;:&quot;vertical&quot;,&quot;curved&quot;:0,&quot;rounded&quot;:0};" parent="aM9ryv3xv72pqoxQDRHE-5" vertex="1">
          <mxGeometry x="45" y="370" width="10" height="270" as="geometry" />
        </mxCell>
        <mxCell id="WA52P8AH93HrRqGYN0VY-20" value="" style="html=1;points=[];perimeter=orthogonalPerimeter;outlineConnect=0;targetShapes=umlLifeline;portConstraint=eastwest;newEdgeStyle={&quot;edgeStyle&quot;:&quot;elbowEdgeStyle&quot;,&quot;elbow&quot;:&quot;vertical&quot;,&quot;curved&quot;:0,&quot;rounded&quot;:0};" parent="aM9ryv3xv72pqoxQDRHE-5" vertex="1">
          <mxGeometry x="45" y="660" width="10" height="210" as="geometry" />
        </mxCell>
        <mxCell id="aM9ryv3xv72pqoxQDRHE-7" value="clickCreateEvent()" style="html=1;verticalAlign=bottom;endArrow=block;edgeStyle=elbowEdgeStyle;elbow=vertical;curved=0;rounded=0;" parent="1" source="aM9ryv3xv72pqoxQDRHE-2" target="aM9ryv3xv72pqoxQDRHE-6" edge="1">
          <mxGeometry relative="1" as="geometry">
            <mxPoint x="195" y="130" as="sourcePoint" />
            <Array as="points">
              <mxPoint x="180" y="120" />
            </Array>
          </mxGeometry>
        </mxCell>
        <mxCell id="NMiY8uogCcei5AZ27jrG-3" value="EventController" style="shape=umlLifeline;perimeter=lifelinePerimeter;whiteSpace=wrap;html=1;container=0;dropTarget=0;collapsible=0;recursiveResize=0;outlineConnect=0;portConstraint=eastwest;newEdgeStyle={&quot;edgeStyle&quot;:&quot;elbowEdgeStyle&quot;,&quot;elbow&quot;:&quot;vertical&quot;,&quot;curved&quot;:0,&quot;rounded&quot;:0};" parent="1" vertex="1">
          <mxGeometry x="830" y="30" width="100" height="1130" as="geometry" />
        </mxCell>
        <mxCell id="NMiY8uogCcei5AZ27jrG-4" value="" style="html=1;points=[];perimeter=orthogonalPerimeter;outlineConnect=0;targetShapes=umlLifeline;portConstraint=eastwest;newEdgeStyle={&quot;edgeStyle&quot;:&quot;elbowEdgeStyle&quot;,&quot;elbow&quot;:&quot;vertical&quot;,&quot;curved&quot;:0,&quot;rounded&quot;:0};" parent="NMiY8uogCcei5AZ27jrG-3" vertex="1">
          <mxGeometry x="45" y="80" width="10" height="250" as="geometry" />
        </mxCell>
        <mxCell id="WA52P8AH93HrRqGYN0VY-17" value="" style="html=1;points=[];perimeter=orthogonalPerimeter;outlineConnect=0;targetShapes=umlLifeline;portConstraint=eastwest;newEdgeStyle={&quot;edgeStyle&quot;:&quot;elbowEdgeStyle&quot;,&quot;elbow&quot;:&quot;vertical&quot;,&quot;curved&quot;:0,&quot;rounded&quot;:0};" parent="NMiY8uogCcei5AZ27jrG-3" vertex="1">
          <mxGeometry x="45" y="390" width="10" height="250" as="geometry" />
        </mxCell>
        <mxCell id="WA52P8AH93HrRqGYN0VY-18" value="" style="html=1;points=[];perimeter=orthogonalPerimeter;outlineConnect=0;targetShapes=umlLifeline;portConstraint=eastwest;newEdgeStyle={&quot;edgeStyle&quot;:&quot;elbowEdgeStyle&quot;,&quot;elbow&quot;:&quot;vertical&quot;,&quot;curved&quot;:0,&quot;rounded&quot;:0};" parent="NMiY8uogCcei5AZ27jrG-3" vertex="1">
          <mxGeometry x="45" y="690" width="10" height="160" as="geometry" />
        </mxCell>
        <mxCell id="NMiY8uogCcei5AZ27jrG-5" value="" style="endArrow=open;endFill=1;endSize=12;html=1;rounded=0;" parent="1" target="NMiY8uogCcei5AZ27jrG-4" edge="1">
          <mxGeometry width="160" relative="1" as="geometry">
            <mxPoint x="410" y="160" as="sourcePoint" />
            <mxPoint x="615" y="160" as="targetPoint" />
          </mxGeometry>
        </mxCell>
        <mxCell id="NMiY8uogCcei5AZ27jrG-6" value="createEvent(details)" style="text;html=1;align=center;verticalAlign=middle;resizable=0;points=[];autosize=1;strokeColor=none;fillColor=none;" parent="1" vertex="1">
          <mxGeometry x="440" y="128" width="130" height="30" as="geometry" />
        </mxCell>
        <mxCell id="NMiY8uogCcei5AZ27jrG-8" value="EventEntity" style="shape=umlLifeline;perimeter=lifelinePerimeter;whiteSpace=wrap;html=1;container=0;dropTarget=0;collapsible=0;recursiveResize=0;outlineConnect=0;portConstraint=eastwest;newEdgeStyle={&quot;edgeStyle&quot;:&quot;elbowEdgeStyle&quot;,&quot;elbow&quot;:&quot;vertical&quot;,&quot;curved&quot;:0,&quot;rounded&quot;:0};" parent="1" vertex="1">
          <mxGeometry x="1250" y="30" width="100" height="1130" as="geometry" />
        </mxCell>
        <mxCell id="NMiY8uogCcei5AZ27jrG-9" value="" style="html=1;points=[];perimeter=orthogonalPerimeter;outlineConnect=0;targetShapes=umlLifeline;portConstraint=eastwest;newEdgeStyle={&quot;edgeStyle&quot;:&quot;elbowEdgeStyle&quot;,&quot;elbow&quot;:&quot;vertical&quot;,&quot;curved&quot;:0,&quot;rounded&quot;:0};" parent="NMiY8uogCcei5AZ27jrG-8" vertex="1">
          <mxGeometry x="45" y="140" width="10" height="150" as="geometry" />
        </mxCell>
        <mxCell id="WA52P8AH93HrRqGYN0VY-13" value="" style="html=1;points=[];perimeter=orthogonalPerimeter;outlineConnect=0;targetShapes=umlLifeline;portConstraint=eastwest;newEdgeStyle={&quot;edgeStyle&quot;:&quot;elbowEdgeStyle&quot;,&quot;elbow&quot;:&quot;vertical&quot;,&quot;curved&quot;:0,&quot;rounded&quot;:0};" parent="NMiY8uogCcei5AZ27jrG-8" vertex="1">
          <mxGeometry x="45" y="440" width="10" height="130" as="geometry" />
        </mxCell>
        <mxCell id="NMiY8uogCcei5AZ27jrG-10" value="create()" style="html=1;verticalAlign=bottom;endArrow=block;curved=0;rounded=0;" parent="1" edge="1">
          <mxGeometry width="80" relative="1" as="geometry">
            <mxPoint x="1095" y="220" as="sourcePoint" />
            <mxPoint x="1300" y="220" as="targetPoint" />
          </mxGeometry>
        </mxCell>
        <mxCell id="NMiY8uogCcei5AZ27jrG-11" value="Event" style="html=1;verticalAlign=bottom;endArrow=open;dashed=1;endSize=8;curved=0;rounded=0;" parent="1" target="NMiY8uogCcei5AZ27jrG-13" edge="1">
          <mxGeometry relative="1" as="geometry">
            <mxPoint x="1300.5" y="284.5" as="sourcePoint" />
            <mxPoint x="1095" y="285" as="targetPoint" />
            <Array as="points" />
          </mxGeometry>
        </mxCell>
        <mxCell id="NMiY8uogCcei5AZ27jrG-12" value="ProxyDbController" style="shape=umlLifeline;perimeter=lifelinePerimeter;whiteSpace=wrap;html=1;container=0;dropTarget=0;collapsible=0;recursiveResize=0;outlineConnect=0;portConstraint=eastwest;newEdgeStyle={&quot;edgeStyle&quot;:&quot;elbowEdgeStyle&quot;,&quot;elbow&quot;:&quot;vertical&quot;,&quot;curved&quot;:0,&quot;rounded&quot;:0};" parent="1" vertex="1">
          <mxGeometry x="1035" y="30" width="100" height="1130" as="geometry" />
        </mxCell>
        <mxCell id="NMiY8uogCcei5AZ27jrG-13" value="" style="html=1;points=[];perimeter=orthogonalPerimeter;outlineConnect=0;targetShapes=umlLifeline;portConstraint=eastwest;newEdgeStyle={&quot;edgeStyle&quot;:&quot;elbowEdgeStyle&quot;,&quot;elbow&quot;:&quot;vertical&quot;,&quot;curved&quot;:0,&quot;rounded&quot;:0};" parent="NMiY8uogCcei5AZ27jrG-12" vertex="1">
          <mxGeometry x="45" y="110" width="10" height="200" as="geometry" />
        </mxCell>
        <mxCell id="WA52P8AH93HrRqGYN0VY-14" value="" style="html=1;points=[];perimeter=orthogonalPerimeter;outlineConnect=0;targetShapes=umlLifeline;portConstraint=eastwest;newEdgeStyle={&quot;edgeStyle&quot;:&quot;elbowEdgeStyle&quot;,&quot;elbow&quot;:&quot;vertical&quot;,&quot;curved&quot;:0,&quot;rounded&quot;:0};" parent="NMiY8uogCcei5AZ27jrG-12" vertex="1">
          <mxGeometry x="45" y="420" width="10" height="180" as="geometry" />
        </mxCell>
        <mxCell id="WA52P8AH93HrRqGYN0VY-15" value="" style="html=1;points=[];perimeter=orthogonalPerimeter;outlineConnect=0;targetShapes=umlLifeline;portConstraint=eastwest;newEdgeStyle={&quot;edgeStyle&quot;:&quot;elbowEdgeStyle&quot;,&quot;elbow&quot;:&quot;vertical&quot;,&quot;curved&quot;:0,&quot;rounded&quot;:0};" parent="NMiY8uogCcei5AZ27jrG-12" vertex="1">
          <mxGeometry x="45" y="760" width="10" height="70" as="geometry" />
        </mxCell>
        <mxCell id="NMiY8uogCcei5AZ27jrG-14" value="createEvent(details)" style="html=1;verticalAlign=bottom;endArrow=block;curved=0;rounded=0;" parent="1" source="NMiY8uogCcei5AZ27jrG-3" edge="1">
          <mxGeometry width="80" relative="1" as="geometry">
            <mxPoint x="995" y="190" as="sourcePoint" />
            <mxPoint x="1075" y="190" as="targetPoint" />
          </mxGeometry>
        </mxCell>
        <mxCell id="NMiY8uogCcei5AZ27jrG-15" value="[Event]" style="html=1;verticalAlign=bottom;endArrow=open;dashed=1;endSize=8;curved=0;rounded=0;" parent="1" target="NMiY8uogCcei5AZ27jrG-4" edge="1">
          <mxGeometry relative="1" as="geometry">
            <mxPoint x="1090.5" y="320" as="sourcePoint" />
            <mxPoint x="1295" y="320" as="targetPoint" />
            <Array as="points" />
          </mxGeometry>
        </mxCell>
        <mxCell id="NMiY8uogCcei5AZ27jrG-16" value="Alt" style="shape=umlFrame;whiteSpace=wrap;html=1;pointerEvents=0;" parent="1" vertex="1">
          <mxGeometry x="80" y="90" width="1240" height="1070" as="geometry" />
        </mxCell>
        <mxCell id="NMiY8uogCcei5AZ27jrG-17" value="[User selects Create Event]" style="text;html=1;align=center;verticalAlign=middle;resizable=0;points=[];autosize=1;strokeColor=none;fillColor=none;" parent="1" vertex="1">
          <mxGeometry x="465" y="88" width="170" height="30" as="geometry" />
        </mxCell>
        <mxCell id="NMiY8uogCcei5AZ27jrG-18" value="[Event]" style="html=1;verticalAlign=bottom;endArrow=open;dashed=1;endSize=8;curved=0;rounded=0;" parent="1" source="NMiY8uogCcei5AZ27jrG-4" edge="1">
          <mxGeometry relative="1" as="geometry">
            <mxPoint x="620.5" y="350" as="sourcePoint" />
            <mxPoint x="410" y="350" as="targetPoint" />
            <Array as="points" />
          </mxGeometry>
        </mxCell>
        <mxCell id="NMiY8uogCcei5AZ27jrG-19" value="displayEvet()" style="html=1;verticalAlign=bottom;endArrow=open;dashed=1;endSize=8;curved=0;rounded=0;" parent="1" target="aM9ryv3xv72pqoxQDRHE-2" edge="1">
          <mxGeometry relative="1" as="geometry">
            <mxPoint x="400.5" y="370" as="sourcePoint" />
            <mxPoint x="190" y="370" as="targetPoint" />
            <Array as="points" />
          </mxGeometry>
        </mxCell>
        <mxCell id="NMiY8uogCcei5AZ27jrG-21" value="" style="endArrow=none;dashed=1;html=1;dashPattern=1 3;strokeWidth=2;rounded=0;entryX=0.999;entryY=0.28;entryDx=0;entryDy=0;entryPerimeter=0;" parent="1" target="NMiY8uogCcei5AZ27jrG-16" edge="1">
          <mxGeometry width="50" height="50" relative="1" as="geometry">
            <mxPoint x="91.91" y="390.0000000000001" as="sourcePoint" />
            <mxPoint x="1109.9999999999998" y="390.0000000000001" as="targetPoint" />
          </mxGeometry>
        </mxCell>
        <mxCell id="NMiY8uogCcei5AZ27jrG-22" value="[User selects&amp;nbsp; Edit Event]" style="text;html=1;align=center;verticalAlign=middle;resizable=0;points=[];autosize=1;strokeColor=none;fillColor=none;" parent="1" vertex="1">
          <mxGeometry x="445" y="390" width="160" height="30" as="geometry" />
        </mxCell>
        <mxCell id="NMiY8uogCcei5AZ27jrG-23" value="" style="html=1;verticalAlign=bottom;endArrow=block;edgeStyle=elbowEdgeStyle;elbow=vertical;curved=0;rounded=0;" parent="1" target="WA52P8AH93HrRqGYN0VY-19" edge="1">
          <mxGeometry relative="1" as="geometry">
            <mxPoint x="100" y="430" as="sourcePoint" />
            <Array as="points">
              <mxPoint x="185" y="430" />
            </Array>
            <mxPoint x="380" y="430" as="targetPoint" />
          </mxGeometry>
        </mxCell>
        <mxCell id="NMiY8uogCcei5AZ27jrG-25" value="" style="endArrow=open;endFill=1;endSize=12;html=1;rounded=0;" parent="1" target="NMiY8uogCcei5AZ27jrG-3" edge="1">
          <mxGeometry width="160" relative="1" as="geometry">
            <mxPoint x="410" y="460" as="sourcePoint" />
            <mxPoint x="612.75" y="460" as="targetPoint" />
          </mxGeometry>
        </mxCell>
        <mxCell id="NMiY8uogCcei5AZ27jrG-26" value="editEvent(details)" style="text;html=1;align=center;verticalAlign=middle;resizable=0;points=[];autosize=1;strokeColor=none;fillColor=none;" parent="1" vertex="1">
          <mxGeometry x="470" y="438" width="120" height="30" as="geometry" />
        </mxCell>
        <mxCell id="NMiY8uogCcei5AZ27jrG-27" value="editEvent(details)" style="html=1;verticalAlign=bottom;endArrow=block;curved=0;rounded=0;" parent="1" edge="1">
          <mxGeometry width="80" relative="1" as="geometry">
            <mxPoint x="884" y="480" as="sourcePoint" />
            <mxPoint x="1085" y="480" as="targetPoint" />
          </mxGeometry>
        </mxCell>
        <mxCell id="NMiY8uogCcei5AZ27jrG-28" value="create()" style="html=1;verticalAlign=bottom;endArrow=block;curved=0;rounded=0;" parent="1" target="WA52P8AH93HrRqGYN0VY-13" edge="1">
          <mxGeometry width="80" relative="1" as="geometry">
            <mxPoint x="1095" y="500" as="sourcePoint" />
            <mxPoint x="1305" y="500" as="targetPoint" />
          </mxGeometry>
        </mxCell>
        <mxCell id="NMiY8uogCcei5AZ27jrG-29" value="Event" style="html=1;verticalAlign=bottom;endArrow=open;dashed=1;endSize=8;curved=0;rounded=0;" parent="1" source="WA52P8AH93HrRqGYN0VY-13" edge="1">
          <mxGeometry relative="1" as="geometry">
            <mxPoint x="1300.5" y="560" as="sourcePoint" />
            <mxPoint x="1095" y="560.5" as="targetPoint" />
            <Array as="points" />
          </mxGeometry>
        </mxCell>
        <mxCell id="NMiY8uogCcei5AZ27jrG-30" value="[Event]" style="html=1;verticalAlign=bottom;endArrow=open;dashed=1;endSize=8;curved=0;rounded=0;" parent="1" edge="1">
          <mxGeometry relative="1" as="geometry">
            <mxPoint x="1085.5" y="590" as="sourcePoint" />
            <mxPoint x="890" y="590" as="targetPoint" />
            <Array as="points" />
          </mxGeometry>
        </mxCell>
        <mxCell id="NMiY8uogCcei5AZ27jrG-31" value="[Event]" style="html=1;verticalAlign=bottom;endArrow=open;dashed=1;endSize=8;curved=0;rounded=0;" parent="1" source="WA52P8AH93HrRqGYN0VY-17" edge="1">
          <mxGeometry x="-0.0024" relative="1" as="geometry">
            <mxPoint x="620.5" y="630" as="sourcePoint" />
            <mxPoint x="410" y="630" as="targetPoint" />
            <Array as="points" />
            <mxPoint as="offset" />
          </mxGeometry>
        </mxCell>
        <mxCell id="NMiY8uogCcei5AZ27jrG-32" value="displayEvent()" style="html=1;verticalAlign=bottom;endArrow=open;dashed=1;endSize=8;curved=0;rounded=0;" parent="1" edge="1">
          <mxGeometry relative="1" as="geometry">
            <mxPoint x="395.5" y="660" as="sourcePoint" />
            <mxPoint x="90" y="660" as="targetPoint" />
            <Array as="points" />
          </mxGeometry>
        </mxCell>
        <mxCell id="NMiY8uogCcei5AZ27jrG-33" value="" style="endArrow=none;dashed=1;html=1;dashPattern=1 3;strokeWidth=2;rounded=0;entryX=0.998;entryY=0.56;entryDx=0;entryDy=0;entryPerimeter=0;" parent="1" target="NMiY8uogCcei5AZ27jrG-16" edge="1">
          <mxGeometry width="50" height="50" relative="1" as="geometry">
            <mxPoint x="91.91" y="690.0000000000001" as="sourcePoint" />
            <mxPoint x="1109.9999999999998" y="690.0000000000001" as="targetPoint" />
          </mxGeometry>
        </mxCell>
        <mxCell id="NMiY8uogCcei5AZ27jrG-34" value="[User selects&amp;nbsp; delete Event]" style="text;html=1;align=center;verticalAlign=middle;resizable=0;points=[];autosize=1;strokeColor=none;fillColor=none;" parent="1" vertex="1">
          <mxGeometry x="435" y="690" width="170" height="30" as="geometry" />
        </mxCell>
        <mxCell id="NMiY8uogCcei5AZ27jrG-35" value="clickEditEvent()" style="text;html=1;align=center;verticalAlign=middle;resizable=0;points=[];autosize=1;strokeColor=none;fillColor=none;" parent="1" vertex="1">
          <mxGeometry x="175" y="398" width="110" height="30" as="geometry" />
        </mxCell>
        <mxCell id="NMiY8uogCcei5AZ27jrG-36" value="" style="html=1;verticalAlign=bottom;endArrow=block;edgeStyle=elbowEdgeStyle;elbow=vertical;curved=0;rounded=0;" parent="1" edge="1">
          <mxGeometry relative="1" as="geometry">
            <mxPoint x="90" y="720" as="sourcePoint" />
            <Array as="points">
              <mxPoint x="175" y="720" />
            </Array>
            <mxPoint x="380" y="720" as="targetPoint" />
          </mxGeometry>
        </mxCell>
        <mxCell id="NMiY8uogCcei5AZ27jrG-37" value="clickDeleteEvent" style="text;html=1;align=center;verticalAlign=middle;resizable=0;points=[];autosize=1;strokeColor=none;fillColor=none;" parent="1" vertex="1">
          <mxGeometry x="185" y="698" width="110" height="30" as="geometry" />
        </mxCell>
        <mxCell id="NMiY8uogCcei5AZ27jrG-38" value="" style="endArrow=open;endFill=1;endSize=12;html=1;rounded=0;" parent="1" edge="1">
          <mxGeometry width="160" relative="1" as="geometry">
            <mxPoint x="407.25" y="760" as="sourcePoint" />
            <mxPoint x="622.75" y="760" as="targetPoint" />
          </mxGeometry>
        </mxCell>
        <mxCell id="NMiY8uogCcei5AZ27jrG-39" value="deleteEvent(eventname)" style="text;html=1;align=center;verticalAlign=middle;resizable=0;points=[];autosize=1;strokeColor=none;fillColor=none;" parent="1" vertex="1">
          <mxGeometry x="415" y="728" width="150" height="30" as="geometry" />
        </mxCell>
        <mxCell id="NMiY8uogCcei5AZ27jrG-40" value="deleteEvent(details)" style="html=1;verticalAlign=bottom;endArrow=block;curved=0;rounded=0;" parent="1" edge="1">
          <mxGeometry width="80" relative="1" as="geometry">
            <mxPoint x="880" y="824.5" as="sourcePoint" />
            <mxPoint x="1081" y="824.5" as="targetPoint" />
          </mxGeometry>
        </mxCell>
        <mxCell id="WA52P8AH93HrRqGYN0VY-1" value="PopUpDialog" style="rounded=0;whiteSpace=wrap;html=1;" parent="1" vertex="1">
          <mxGeometry x="570" y="30" width="110" height="40" as="geometry" />
        </mxCell>
        <mxCell id="WA52P8AH93HrRqGYN0VY-2" value="" style="endArrow=none;dashed=1;html=1;dashPattern=1 3;strokeWidth=2;rounded=0;entryX=0.5;entryY=1;entryDx=0;entryDy=0;exitX=0.534;exitY=1;exitDx=0;exitDy=0;exitPerimeter=0;" parent="1" source="WA52P8AH93HrRqGYN0VY-4" target="WA52P8AH93HrRqGYN0VY-1" edge="1">
          <mxGeometry width="50" height="50" relative="1" as="geometry">
            <mxPoint x="630" y="330" as="sourcePoint" />
            <mxPoint x="680" y="280" as="targetPoint" />
          </mxGeometry>
        </mxCell>
        <mxCell id="WA52P8AH93HrRqGYN0VY-3" value="alt" style="shape=umlFrame;whiteSpace=wrap;html=1;pointerEvents=0;" parent="1" vertex="1">
          <mxGeometry x="620" y="720" width="270" height="180" as="geometry" />
        </mxCell>
        <mxCell id="WA52P8AH93HrRqGYN0VY-5" value="" style="endArrow=none;dashed=1;html=1;dashPattern=1 3;strokeWidth=2;rounded=0;entryX=0.5;entryY=1;entryDx=0;entryDy=0;exitX=0.44;exitY=1;exitDx=0;exitDy=0;exitPerimeter=0;" parent="1" source="NMiY8uogCcei5AZ27jrG-16" target="WA52P8AH93HrRqGYN0VY-4" edge="1">
          <mxGeometry width="50" height="50" relative="1" as="geometry">
            <mxPoint x="630" y="1160" as="sourcePoint" />
            <mxPoint x="625" y="70" as="targetPoint" />
          </mxGeometry>
        </mxCell>
        <mxCell id="WA52P8AH93HrRqGYN0VY-4" value="" style="html=1;points=[[0,0,0,0,5],[0,1,0,0,-5],[1,0,0,0,5],[1,1,0,0,-5]];perimeter=orthogonalPerimeter;outlineConnect=0;targetShapes=umlLifeline;portConstraint=eastwest;newEdgeStyle={&quot;curved&quot;:0,&quot;rounded&quot;:0};" parent="1" vertex="1">
          <mxGeometry x="625" y="728" width="10" height="112" as="geometry" />
        </mxCell>
        <mxCell id="WA52P8AH93HrRqGYN0VY-6" value="" style="endArrow=none;dashed=1;html=1;dashPattern=1 3;strokeWidth=2;rounded=0;entryX=1.001;entryY=0.536;entryDx=0;entryDy=0;entryPerimeter=0;exitX=-0.007;exitY=0.54;exitDx=0;exitDy=0;exitPerimeter=0;" parent="1" source="WA52P8AH93HrRqGYN0VY-3" target="WA52P8AH93HrRqGYN0VY-3" edge="1">
          <mxGeometry width="50" height="50" relative="1" as="geometry">
            <mxPoint x="710" y="835" as="sourcePoint" />
            <mxPoint x="760" y="785" as="targetPoint" />
          </mxGeometry>
        </mxCell>
        <mxCell id="WA52P8AH93HrRqGYN0VY-7" value="Users confirms deletion" style="text;html=1;align=center;verticalAlign=middle;resizable=0;points=[];autosize=1;strokeColor=none;fillColor=none;" parent="1" vertex="1">
          <mxGeometry x="675" y="720" width="150" height="30" as="geometry" />
        </mxCell>
        <mxCell id="WA52P8AH93HrRqGYN0VY-8" value="Users declines deletion" style="text;html=1;align=center;verticalAlign=middle;resizable=0;points=[];autosize=1;strokeColor=none;fillColor=none;" parent="1" vertex="1">
          <mxGeometry x="680" y="810" width="150" height="30" as="geometry" />
        </mxCell>
        <mxCell id="WA52P8AH93HrRqGYN0VY-9" value="" style="endArrow=classic;html=1;rounded=0;" parent="1" target="WA52P8AH93HrRqGYN0VY-20" edge="1">
          <mxGeometry width="50" height="50" relative="1" as="geometry">
            <mxPoint x="635" y="835" as="sourcePoint" />
            <mxPoint x="420" y="880" as="targetPoint" />
            <Array as="points">
              <mxPoint x="680" y="835" />
              <mxPoint x="680" y="880" />
            </Array>
          </mxGeometry>
        </mxCell>
        <mxCell id="WA52P8AH93HrRqGYN0VY-10" value="popDialog()" style="text;html=1;align=center;verticalAlign=middle;resizable=0;points=[];autosize=1;strokeColor=none;fillColor=none;" parent="1" vertex="1">
          <mxGeometry x="475" y="848" width="90" height="30" as="geometry" />
        </mxCell>
        <mxCell id="WA52P8AH93HrRqGYN0VY-11" value="" style="endArrow=classic;html=1;rounded=0;" parent="1" source="WA52P8AH93HrRqGYN0VY-4" edge="1">
          <mxGeometry width="50" height="50" relative="1" as="geometry">
            <mxPoint x="690" y="800" as="sourcePoint" />
            <mxPoint x="880" y="784" as="targetPoint" />
          </mxGeometry>
        </mxCell>
        <mxCell id="WA52P8AH93HrRqGYN0VY-12" value="deleteEvent()" style="text;html=1;align=center;verticalAlign=middle;resizable=0;points=[];autosize=1;strokeColor=none;fillColor=none;" parent="1" vertex="1">
          <mxGeometry x="690" y="758" width="90" height="30" as="geometry" />
        </mxCell>
      </root>
    </mxGraphModel>
  </diagram>
</mxfile>
